<svg xmlns="http://www.w3.org/2000/svg" viewBox="0 0 76.964 75.415">
  <defs>
    <clipPath id="a" transform="translate(-.326 -.276)">
      <path fill="none" d="M1.061-20.091h86.25v96H1.061z" transform="rotate(-39.856 44.185 27.9095)"/>
    </clipPath>
  </defs>
  <title>
    Avalon
  </title>
  <path fill="#313f49" d="M45.042 26.649a18.523 18.523 0 1 1-26.123-2.388 18.569 18.569 0 0 1 26.123 2.388zm5.845-4.879a26.137 26.137 0 1 0-3.266 36.872 26.2 26.2 0 0 0 3.266-36.872zM76.964 0l-7.721 37.707-7.721 37.709-11.515-13.792.061-.05a30.0318 30.0318 0 0 0-38.494-46.107l-.06.05L0 1.724 38.482.863z"/>
</svg>
