<svg version="1" xmlns="http://www.w3.org/2000/svg" width="1284" height="1284" viewBox="0 0 963.000000 963.000000"><path d="M460.6 20.6C208.2 26.3 1.5 31.2 1.3 31.4c-.6.5 141.9 171.5 142.9 171.6.4 0 5.1-3.4 10.5-7.6 84.6-66.2 195.2-92.8 300.3-72.3 104.5 20.4 192.2 80.8 249.2 171.7 27.6 43.8 46 96.3 53.5 152.7 2.2 16.4 2.5 68.4.5 84.5-11.7 94.4-52.8 175.6-119.3 235.8-7.1 6.5-12.9 12-12.9 12.3 0 .6 137.7 165.9 141.4 169.7l2.2 2.2 95.9-468.2c52.7-257.6 96.1-469.5 96.3-471.1l.4-2.7-21.3.1c-11.8.1-227.9 4.8-480.3 10.5z"/><path d="M360.5 164.7c-46.2 4-85.4 15-124.9 35.1-43.8 22.3-83.6 56.2-113.9 97.1-31.4 42.3-52.6 95-60.2 150.1-2.3 16-3.1 53.5-1.6 71.2 8.8 104.1 66.4 197.2 156.1 252.3 13.4 8.2 40.7 21.5 55.7 27 23.9 8.8 47 14.5 72.8 18 16.8 2.3 50.9 3.1 68.6 1.6 78.1-6.6 148.7-39 203.4-93.6 53.9-53.7 85.7-120.3 94.6-198.5 1.8-15.6 1.5-53.7-.5-70.5-7.8-64.9-32.8-123.1-74.3-173.2-10.6-12.8-34.1-35.8-47-46.1-59.2-46.9-131.4-71.7-206.8-71-9.9.1-19.8.3-22 .5zm56.2 96.8c67.4 9.8 125.5 46.6 162.6 103 16.2 24.7 27.9 53.4 33.7 82.9 3 15.2 4 26.4 4 44.1 0 24.1-2.5 42-9.1 64.9-22.4 78.4-86.5 139.9-165.9 159.5-20.6 5-33.2 6.5-55.5 6.5-22.8 0-36.2-1.6-57.1-6.9C263 698.6 208 653.9 178 592.6c-10.6-21.6-16.9-41.3-21.2-66.2-2.9-17.3-3.2-52.1-.5-68.9 12.9-78.8 59.6-142.3 129.2-175.6 25.5-12.2 54.3-19.8 84-22.3 9.3-.7 36.3.3 47.2 1.9z"/></svg>